<svg xmlns="http://www.w3.org/2000/svg" width="96" height="96"><path d="M32.681 14.653c-.375.374-.681 8.45-.681 17.946v17.267l13.149-5.933C52.381 40.67 59.376 38 60.694 38 63.81 38 68 42.229 68 45.373c0 3.964-.982 5.522-5.8 9.2l-4.547 3.472 18.923-.272L95.5 57.5v-43l-31.069-.264c-17.088-.145-31.376.042-31.75.417" fill="#2ab1e9" fill-rule="evenodd"/><path d="M9.643 27.668 0 35.336v42.843l15.25-.356c17.791-.416 17.905-.458 32.788-11.96C66.306 51.746 68 50.063 68 46.031 68 42.244 64.14 38 60.694 38c-1.318 0-8.313 2.67-15.545 5.933L32 49.866V20H19.286l-9.643 7.668" fill="#f7c340" fill-rule="evenodd"/></svg>