<svg style="fill-rule:evenodd;clip-rule:evenodd;stroke-linejoin:round;stroke-miterlimit:1.41421" viewBox="0 0 900 575" xml:space="preserve" xmlns="http://www.w3.org/2000/svg"><path style="fill:#fff;fill-rule:nonzero" d="M0 .79h216V138H0z" transform="scale(4.16667)"/><path style="fill:#fcb315;fill-rule:nonzero" d="M3.597 115.705h208.802v18.72H3.597z" transform="scale(4.16667)"/><path style="fill:#0d357f;fill-rule:nonzero" d="M3.597 4.389h208.802v18.72H3.597zm102.6 39.345L95.191 95.189H81.879l11.007-51.455h13.311Zm56.004 33.225 7.008-19.323 4.031 19.323h-11.039Zm14.86 18.23h12.308l-10.754-51.455h-11.354c-2.56 0-4.716 1.484-5.671 3.772l-19.975 47.683h13.981l2.775-7.685h17.076l1.614 7.685ZM142.309 78.39c.058-13.579-18.772-14.332-18.647-20.399.041-1.844 1.799-3.808 5.645-4.31 1.906-.246 7.166-.444 13.129 2.303l2.332-10.916c-3.204-1.158-7.325-2.274-12.452-2.274-13.16 0-22.418 6.99-22.492 17.008-.084 7.408 6.614 11.538 11.649 14.005 5.191 2.522 6.931 4.14 6.906 6.393-.036 3.452-4.141 4.98-7.961 5.038-6.697.104-10.578-1.81-13.672-3.252l-2.416 11.28c3.115 1.426 8.856 2.667 14.799 2.731 13.99 0 23.139-6.909 23.18-17.607ZM87.176 43.734 65.607 95.189h-14.07L40.922 54.124c-.643-2.525-1.204-3.453-3.161-4.52-3.201-1.739-8.486-3.365-13.132-4.377l.314-1.493h22.652c2.885 0 5.481 1.92 6.141 5.243l5.607 29.777 13.848-35.02h13.985Z" transform="scale(4.16667)"/></svg>